# xmcd
#
# Track frame offsets:
#	150
#	900
#	1650
#	2400
#	3150
#	3900
#	4650
#	5400
#	6150
#	6900
#	7650
#	8400
#	9150
#
# Disc length: 4361 seconds
#
# Revision: 1
# Processed by: cddbd v1.5.1PL0 Copyright (c) Steve Scherf et al.
# Submitted via: CDex 1.50Beta5
#
DISCID=4d11070d
DTITLE=Eros Ramazzotti - 9 [Italian]
DYEAR=2003
DGENRE=Latin
TTITLE0=Un Attimo Di Pace
TTITLE1=Solo Ieri
TTITLE2=Un'emozione Per Sempre
TTITLE3=Ti Vorrei Rivivere
TTITLE4=Il Buio Ha I Tuoi Occhi
TTITLE5=Un'ancora Nel Vento
TTITLE6=Piccola Pietra
TTITLE7=Mamar将「
TTITLE8=L' Uomo Che Guardava le Nuvole
TTITLE9=Canzone Per Lei
TTITLE10=Non Ti Prometto Niente
TTITLE11=Falsa Partenza
TTITLE12=C'宵イ Una Melodia
EXTD=
EXTT0=
EXTT1=
EXTT2=
EXTT3=
EXTT4=
EXTT5=
EXTT6=
EXTT7=
EXTT8=
EXTT9=
EXTT10=
EXTT11=
EXTT12=
PLAYORDER=
